solid OpenSCAD_Model
  facet normal -0.891009 0 -0.453985
    outer loop
      vertex 1.42658 2 8.46352
      vertex 1.21352 5 8.88168
      vertex 1.42658 5 8.46352
    endloop
  endfacet
  facet normal -0.891009 -0 -0.453985
    outer loop
      vertex 1.21352 5 8.88168
      vertex 1.42658 2 8.46352
      vertex 1.21352 2 8.88168
    endloop
  endfacet
  facet normal -0.987686 0 -0.156446
    outer loop
      vertex 1.5 2 8
      vertex 1.42658 5 8.46352
      vertex 1.5 5 8
    endloop
  endfacet
  facet normal -0.987686 -0 -0.156446
    outer loop
      vertex 1.42658 5 8.46352
      vertex 1.5 2 8
      vertex 1.42658 2 8.46352
    endloop
  endfacet
  facet normal -0.707105 0 -0.707109
    outer loop
      vertex 1.21352 2 8.88168
      vertex 0.881678 5 9.21352
      vertex 1.21352 5 8.88168
    endloop
  endfacet
  facet normal -0.707105 -0 -0.707109
    outer loop
      vertex 0.881678 5 9.21352
      vertex 1.21352 2 8.88168
      vertex 0.881678 2 9.21352
    endloop
  endfacet
  facet normal -0.156445 0 -0.987687
    outer loop
      vertex 0 2 9.5
      vertex 0.463525 5 9.42658
      vertex 0.463525 2 9.42658
    endloop
  endfacet
  facet normal -0.156445 0 -0.987687
    outer loop
      vertex 0.463525 5 9.42658
      vertex 0 2 9.5
      vertex 0 5 9.5
    endloop
  endfacet
  facet normal 0 1 0
    outer loop
      vertex 0 5 9.5
      vertex 0 5 15.5
      vertex 1.94114 5 15.2444
    endloop
  endfacet
  facet normal 0 1 0
    outer loop
      vertex 0.463525 5 9.42658
      vertex 1.94114 5 15.2444
      vertex 3.75 5 14.4952
    endloop
  endfacet
  facet normal 0 1 0
    outer loop
      vertex 0 5 15.5
      vertex 0 5 9.5
      vertex -1.94114 5 15.2444
    endloop
  endfacet
  facet normal 0 1 0
    outer loop
      vertex 0.881678 5 9.21352
      vertex 3.75 5 14.4952
      vertex 5.3033 5 13.3033
    endloop
  endfacet
  facet normal 0 1 -0
    outer loop
      vertex -0.463525 5 9.42658
      vertex -1.94114 5 15.2444
      vertex 0 5 9.5
    endloop
  endfacet
  facet normal 0 1 0
    outer loop
      vertex 1.21352 5 8.88168
      vertex 5.3033 5 13.3033
      vertex 6.49519 5 11.75
    endloop
  endfacet
  facet normal 0 1 0
    outer loop
      vertex -1.94114 5 15.2444
      vertex -0.463525 5 9.42658
      vertex -3.75 5 14.4952
    endloop
  endfacet
  facet normal 0 1 0
    outer loop
      vertex 1.42658 5 8.46352
      vertex 6.49519 5 11.75
      vertex 7.24444 5 9.94114
    endloop
  endfacet
  facet normal 0 1 -0
    outer loop
      vertex -0.881678 5 9.21352
      vertex -3.75 5 14.4952
      vertex -0.463525 5 9.42658
    endloop
  endfacet
  facet normal 0 1 0
    outer loop
      vertex -3.75 5 14.4952
      vertex -0.881678 5 9.21352
      vertex -5.3033 5 13.3033
    endloop
  endfacet
  facet normal 0 1 0
    outer loop
      vertex 1.94114 5 15.2444
      vertex 0.463525 5 9.42658
      vertex 0 5 9.5
    endloop
  endfacet
  facet normal 0 1 0
    outer loop
      vertex 3.75 5 14.4952
      vertex 0.881678 5 9.21352
      vertex 0.463525 5 9.42658
    endloop
  endfacet
  facet normal 0 1 0
    outer loop
      vertex 5.3033 5 13.3033
      vertex 1.21352 5 8.88168
      vertex 0.881678 5 9.21352
    endloop
  endfacet
  facet normal 0 1 0
    outer loop
      vertex 6.49519 5 11.75
      vertex 1.42658 5 8.46352
      vertex 1.21352 5 8.88168
    endloop
  endfacet
  facet normal 0 1 0
    outer loop
      vertex 1.5 5 8
      vertex 7.24444 5 9.94114
      vertex 7.5 5 8
    endloop
  endfacet
  facet normal 0 1 0
    outer loop
      vertex 7.24444 5 9.94114
      vertex 1.5 5 8
      vertex 1.42658 5 8.46352
    endloop
  endfacet
  facet normal 0 1 -0
    outer loop
      vertex 7.24444 5 6.05886
      vertex 1.5 5 8
      vertex 7.5 5 8
    endloop
  endfacet
  facet normal 0 1 0
    outer loop
      vertex 1.5 5 8
      vertex 7.24444 5 6.05886
      vertex 1.42658 5 7.53648
    endloop
  endfacet
  facet normal 0 1 -0
    outer loop
      vertex 6.80585 5 5
      vertex 1.42658 5 7.53648
      vertex 7.24444 5 6.05886
    endloop
  endfacet
  facet normal 0 1 0
    outer loop
      vertex 1.42658 5 7.53648
      vertex 6.80585 5 5
      vertex 1.21352 5 7.11832
    endloop
  endfacet
  facet normal 0 1 0
    outer loop
      vertex 0 5 5
      vertex 0.881678 5 6.78648
      vertex 6.80585 5 5
    endloop
  endfacet
  facet normal 0 1 0
    outer loop
      vertex 1.21352 5 7.11832
      vertex 6.80585 5 5
      vertex 0.881678 5 6.78648
    endloop
  endfacet
  facet normal 0 1 -0
    outer loop
      vertex -1.21352 5 8.88168
      vertex -5.3033 5 13.3033
      vertex -0.881678 5 9.21352
    endloop
  endfacet
  facet normal 0 1 0
    outer loop
      vertex -5.3033 5 13.3033
      vertex -1.21352 5 8.88168
      vertex -6.49519 5 11.75
    endloop
  endfacet
  facet normal 0 1 -0
    outer loop
      vertex -1.42658 5 8.46352
      vertex -6.49519 5 11.75
      vertex -1.21352 5 8.88168
    endloop
  endfacet
  facet normal 0 1 0
    outer loop
      vertex -6.49519 5 11.75
      vertex -1.42658 5 8.46352
      vertex -7.24444 5 9.94114
    endloop
  endfacet
  facet normal 0 1 -0
    outer loop
      vertex -1.5 5 8
      vertex -7.24444 5 9.94114
      vertex -1.42658 5 8.46352
    endloop
  endfacet
  facet normal 0 1 0
    outer loop
      vertex -1.5 5 8
      vertex -7.5 5 8
      vertex -7.24444 5 9.94114
    endloop
  endfacet
  facet normal 0 1 0
    outer loop
      vertex -7.24444 5 6.05886
      vertex -1.5 5 8
      vertex -1.42658 5 7.53648
    endloop
  endfacet
  facet normal 0 1 0
    outer loop
      vertex -6.49519 5 4.25
      vertex -1.42658 5 7.53648
      vertex -1.21352 5 7.11832
    endloop
  endfacet
  facet normal 0 1 0
    outer loop
      vertex -5.3033 5 2.6967
      vertex -1.21352 5 7.11832
      vertex -0.881678 5 6.78648
    endloop
  endfacet
  facet normal 0 1 0
    outer loop
      vertex 0 5 5
      vertex -0.881678 5 6.78648
      vertex -0.463525 5 6.57342
    endloop
  endfacet
  facet normal 0 1 0
    outer loop
      vertex -1.5 5 8
      vertex -7.24444 5 6.05886
      vertex -7.5 5 8
    endloop
  endfacet
  facet normal 0 1 -0
    outer loop
      vertex 0 5 5
      vertex -0.463525 5 6.57342
      vertex 0 5 6.5
    endloop
  endfacet
  facet normal 0 1 0
    outer loop
      vertex 0.881678 5 6.78648
      vertex 0 5 5
      vertex 0.463525 5 6.57342
    endloop
  endfacet
  facet normal 0 1 0
    outer loop
      vertex 0.463525 5 6.57342
      vertex 0 5 5
      vertex 0 5 6.5
    endloop
  endfacet
  facet normal 0 1 0
    outer loop
      vertex -0.881678 5 6.78648
      vertex 0 5 5
      vertex -5.3033 5 2.6967
    endloop
  endfacet
  facet normal 0 1 0
    outer loop
      vertex -1.42658 5 7.53648
      vertex -6.49519 5 4.25
      vertex -7.24444 5 6.05886
    endloop
  endfacet
  facet normal 0 1 0
    outer loop
      vertex -1.21352 5 7.11832
      vertex -5.3033 5 2.6967
      vertex -6.49519 5 4.25
    endloop
  endfacet
  facet normal 0 1 0
    outer loop
      vertex 0 5 5
      vertex -3.75 5 1.50481
      vertex -5.3033 5 2.6967
    endloop
  endfacet
  facet normal 0 1 0
    outer loop
      vertex 0 5 5
      vertex -1.94114 5 0.755556
      vertex -3.75 5 1.50481
    endloop
  endfacet
  facet normal -0 1 0
    outer loop
      vertex -1.94114 5 0.755556
      vertex 0 5 5
      vertex 0 5 0.5
    endloop
  endfacet
  facet normal -0.453991 0 -0.891006
    outer loop
      vertex 0.463525 2 9.42658
      vertex 0.881678 5 9.21352
      vertex 0.881678 2 9.21352
    endloop
  endfacet
  facet normal -0.453991 0 -0.891006
    outer loop
      vertex 0.881678 5 9.21352
      vertex 0.463525 2 9.42658
      vertex 0.463525 5 9.42658
    endloop
  endfacet
  facet normal 0.453991 0 -0.891006
    outer loop
      vertex -0.881678 2 9.21352
      vertex -0.463525 5 9.42658
      vertex -0.463525 2 9.42658
    endloop
  endfacet
  facet normal 0.453991 0 -0.891006
    outer loop
      vertex -0.463525 5 9.42658
      vertex -0.881678 2 9.21352
      vertex -0.881678 5 9.21352
    endloop
  endfacet
  facet normal 0.156445 0 0.987687
    outer loop
      vertex -0.463525 5 6.57342
      vertex 0 2 6.5
      vertex 0 5 6.5
    endloop
  endfacet
  facet normal 0.156445 0 0.987687
    outer loop
      vertex 0 2 6.5
      vertex -0.463525 5 6.57342
      vertex -0.463525 2 6.57342
    endloop
  endfacet
  facet normal -0.707105 0 0.707109
    outer loop
      vertex 0.881678 2 6.78648
      vertex 1.21352 5 7.11832
      vertex 0.881678 5 6.78648
    endloop
  endfacet
  facet normal -0.707105 0 0.707109
    outer loop
      vertex 1.21352 5 7.11832
      vertex 0.881678 2 6.78648
      vertex 1.21352 2 7.11832
    endloop
  endfacet
  facet normal 0.891009 -0 0.453985
    outer loop
      vertex -1.42658 2 7.53648
      vertex -1.21352 5 7.11832
      vertex -1.42658 5 7.53648
    endloop
  endfacet
  facet normal 0.891009 0 0.453985
    outer loop
      vertex -1.21352 5 7.11832
      vertex -1.42658 2 7.53648
      vertex -1.21352 2 7.11832
    endloop
  endfacet
  facet normal 0.156445 0 -0.987687
    outer loop
      vertex -0.463525 2 9.42658
      vertex 0 5 9.5
      vertex 0 2 9.5
    endloop
  endfacet
  facet normal 0.156445 0 -0.987687
    outer loop
      vertex 0 5 9.5
      vertex -0.463525 2 9.42658
      vertex -0.463525 5 9.42658
    endloop
  endfacet
  facet normal -0.453991 0 0.891006
    outer loop
      vertex 0.463525 5 6.57342
      vertex 0.881678 2 6.78648
      vertex 0.881678 5 6.78648
    endloop
  endfacet
  facet normal -0.453991 0 0.891006
    outer loop
      vertex 0.881678 2 6.78648
      vertex 0.463525 5 6.57342
      vertex 0.463525 2 6.57342
    endloop
  endfacet
  facet normal -0.156445 0 0.987687
    outer loop
      vertex 0 5 6.5
      vertex 0.463525 2 6.57342
      vertex 0.463525 5 6.57342
    endloop
  endfacet
  facet normal -0.156445 0 0.987687
    outer loop
      vertex 0.463525 2 6.57342
      vertex 0 5 6.5
      vertex 0 2 6.5
    endloop
  endfacet
  facet normal 0.987686 -0 0.156446
    outer loop
      vertex -1.5 2 8
      vertex -1.42658 5 7.53648
      vertex -1.5 5 8
    endloop
  endfacet
  facet normal 0.987686 0 0.156446
    outer loop
      vertex -1.42658 5 7.53648
      vertex -1.5 2 8
      vertex -1.42658 2 7.53648
    endloop
  endfacet
  facet normal 0.891009 0 -0.453985
    outer loop
      vertex -1.21352 2 8.88168
      vertex -1.42658 5 8.46352
      vertex -1.21352 5 8.88168
    endloop
  endfacet
  facet normal 0.891009 0 -0.453985
    outer loop
      vertex -1.42658 5 8.46352
      vertex -1.21352 2 8.88168
      vertex -1.42658 2 8.46352
    endloop
  endfacet
  facet normal 0.707105 0 -0.707109
    outer loop
      vertex -0.881678 2 9.21352
      vertex -1.21352 5 8.88168
      vertex -0.881678 5 9.21352
    endloop
  endfacet
  facet normal 0.707105 0 -0.707109
    outer loop
      vertex -1.21352 5 8.88168
      vertex -0.881678 2 9.21352
      vertex -1.21352 2 8.88168
    endloop
  endfacet
  facet normal 0 -1 0
    outer loop
      vertex -0.881678 2 9.21352
      vertex 0 2 11.35
      vertex -2.90119 2 9.675
    endloop
  endfacet
  facet normal 0 -1 0
    outer loop
      vertex 0.463525 2 9.42658
      vertex 0 2 11.35
      vertex 0 2 9.5
    endloop
  endfacet
  facet normal 0 -1 -0
    outer loop
      vertex 0 2 11.35
      vertex -0.463525 2 9.42658
      vertex 0 2 9.5
    endloop
  endfacet
  facet normal 0 -1 0
    outer loop
      vertex 0 2 11.35
      vertex -0.881678 2 9.21352
      vertex -0.463525 2 9.42658
    endloop
  endfacet
  facet normal 0 -1 0
    outer loop
      vertex -2.90119 2 9.675
      vertex -1.21352 2 8.88168
      vertex -0.881678 2 9.21352
    endloop
  endfacet
  facet normal 0 -1 0
    outer loop
      vertex -2.90119 2 9.675
      vertex -1.42658 2 8.46352
      vertex -1.21352 2 8.88168
    endloop
  endfacet
  facet normal 0 -1 0
    outer loop
      vertex -2.90119 2 9.675
      vertex -1.5 2 8
      vertex -1.42658 2 8.46352
    endloop
  endfacet
  facet normal 0 -1 0
    outer loop
      vertex -2.90119 2 6.325
      vertex -1.5 2 8
      vertex -2.90119 2 9.675
    endloop
  endfacet
  facet normal 0 -1 -0
    outer loop
      vertex -1.5 2 8
      vertex -2.90119 2 6.325
      vertex -1.42658 2 7.53648
    endloop
  endfacet
  facet normal 0 -1 0
    outer loop
      vertex -0.881678 2 6.78648
      vertex 0 2 4.65
      vertex -0.463525 2 6.57342
    endloop
  endfacet
  facet normal 0 -1 0
    outer loop
      vertex 0 2 4.65
      vertex -0.881678 2 6.78648
      vertex -2.90119 2 6.325
    endloop
  endfacet
  facet normal 0 -1 -0
    outer loop
      vertex -1.21352 2 7.11832
      vertex -2.90119 2 6.325
      vertex -0.881678 2 6.78648
    endloop
  endfacet
  facet normal 0 -1 -0
    outer loop
      vertex -1.42658 2 7.53648
      vertex -2.90119 2 6.325
      vertex -1.21352 2 7.11832
    endloop
  endfacet
  facet normal 0 -1 0
    outer loop
      vertex 0.881678 2 9.21352
      vertex 0 2 11.35
      vertex 0.463525 2 9.42658
    endloop
  endfacet
  facet normal 0 -1 0
    outer loop
      vertex 0 2 11.35
      vertex 0.881678 2 9.21352
      vertex 2.90119 2 9.675
    endloop
  endfacet
  facet normal 0 -1 0
    outer loop
      vertex 1.21352 2 8.88168
      vertex 2.90119 2 9.675
      vertex 0.881678 2 9.21352
    endloop
  endfacet
  facet normal 0 -1 0
    outer loop
      vertex 1.42658 2 8.46352
      vertex 2.90119 2 9.675
      vertex 1.21352 2 8.88168
    endloop
  endfacet
  facet normal 0 -1 0
    outer loop
      vertex 1.5 2 8
      vertex 2.90119 2 9.675
      vertex 1.42658 2 8.46352
    endloop
  endfacet
  facet normal 0 -1 0
    outer loop
      vertex 2.90119 2 6.325
      vertex 1.5 2 8
      vertex 1.42658 2 7.53648
    endloop
  endfacet
  facet normal 0 -1 0
    outer loop
      vertex 2.90119 2 6.325
      vertex 1.42658 2 7.53648
      vertex 1.21352 2 7.11832
    endloop
  endfacet
  facet normal 0 -1 0
    outer loop
      vertex 1.5 2 8
      vertex 2.90119 2 6.325
      vertex 2.90119 2 9.675
    endloop
  endfacet
  facet normal 0 -1 0
    outer loop
      vertex 0.881678 2 6.78648
      vertex 2.90119 2 6.325
      vertex 1.21352 2 7.11832
    endloop
  endfacet
  facet normal 0 -1 0
    outer loop
      vertex 0 2 4.65
      vertex 0.881678 2 6.78648
      vertex 0.463525 2 6.57342
    endloop
  endfacet
  facet normal 0 -1 0
    outer loop
      vertex 0 2 4.65
      vertex 0.463525 2 6.57342
      vertex 0 2 6.5
    endloop
  endfacet
  facet normal 0 -1 0
    outer loop
      vertex -0.463525 2 6.57342
      vertex 0 2 4.65
      vertex 0 2 6.5
    endloop
  endfacet
  facet normal 0 -1 -0
    outer loop
      vertex 0.881678 2 6.78648
      vertex 0 2 4.65
      vertex 2.90119 2 6.325
    endloop
  endfacet
  facet normal -0.891009 0 0.453985
    outer loop
      vertex 1.21352 2 7.11832
      vertex 1.42658 5 7.53648
      vertex 1.21352 5 7.11832
    endloop
  endfacet
  facet normal -0.891009 0 0.453985
    outer loop
      vertex 1.42658 5 7.53648
      vertex 1.21352 2 7.11832
      vertex 1.42658 2 7.53648
    endloop
  endfacet
  facet normal -0.987686 0 0.156446
    outer loop
      vertex 1.42658 2 7.53648
      vertex 1.5 5 8
      vertex 1.42658 5 7.53648
    endloop
  endfacet
  facet normal -0.987686 0 0.156446
    outer loop
      vertex 1.5 5 8
      vertex 1.42658 2 7.53648
      vertex 1.5 2 8
    endloop
  endfacet
  facet normal 0.707105 -0 0.707109
    outer loop
      vertex -1.21352 2 7.11832
      vertex -0.881678 5 6.78648
      vertex -1.21352 5 7.11832
    endloop
  endfacet
  facet normal 0.707105 0 0.707109
    outer loop
      vertex -0.881678 5 6.78648
      vertex -1.21352 2 7.11832
      vertex -0.881678 2 6.78648
    endloop
  endfacet
  facet normal 0.987686 0 -0.156446
    outer loop
      vertex -1.42658 2 8.46352
      vertex -1.5 5 8
      vertex -1.42658 5 8.46352
    endloop
  endfacet
  facet normal 0.987686 0 -0.156446
    outer loop
      vertex -1.5 5 8
      vertex -1.42658 2 8.46352
      vertex -1.5 2 8
    endloop
  endfacet
  facet normal 0.453991 0 0.891006
    outer loop
      vertex -0.881678 5 6.78648
      vertex -0.463525 2 6.57342
      vertex -0.463525 5 6.57342
    endloop
  endfacet
  facet normal 0.453991 0 0.891006
    outer loop
      vertex -0.463525 2 6.57342
      vertex -0.881678 5 6.78648
      vertex -0.881678 2 6.78648
    endloop
  endfacet
  facet normal -1 0 0
    outer loop
      vertex 2.90119 0 6.325
      vertex 2.90119 2 9.675
      vertex 2.90119 2 6.325
    endloop
  endfacet
  facet normal -1 -0 0
    outer loop
      vertex 2.90119 2 9.675
      vertex 2.90119 0 6.325
      vertex 2.90119 0 9.675
    endloop
  endfacet
  facet normal -0.499999 0 -0.866026
    outer loop
      vertex 0 0 11.35
      vertex 2.90119 2 9.675
      vertex 2.90119 0 9.675
    endloop
  endfacet
  facet normal -0.499999 0 -0.866026
    outer loop
      vertex 2.90119 2 9.675
      vertex 0 0 11.35
      vertex 0 2 11.35
    endloop
  endfacet
  facet normal 1 -0 0
    outer loop
      vertex -2.90119 0 9.675
      vertex -2.90119 2 6.325
      vertex -2.90119 2 9.675
    endloop
  endfacet
  facet normal 1 0 0
    outer loop
      vertex -2.90119 2 6.325
      vertex -2.90119 0 9.675
      vertex -2.90119 0 6.325
    endloop
  endfacet
  facet normal 0.499999 0 -0.866026
    outer loop
      vertex -2.90119 0 9.675
      vertex 0 2 11.35
      vertex 0 0 11.35
    endloop
  endfacet
  facet normal 0.499999 0 -0.866026
    outer loop
      vertex 0 2 11.35
      vertex -2.90119 0 9.675
      vertex -2.90119 2 9.675
    endloop
  endfacet
  facet normal 0.499999 0 0.866026
    outer loop
      vertex -2.90119 2 6.325
      vertex 0 0 4.65
      vertex 0 2 4.65
    endloop
  endfacet
  facet normal 0.499999 0 0.866026
    outer loop
      vertex 0 0 4.65
      vertex -2.90119 2 6.325
      vertex -2.90119 0 6.325
    endloop
  endfacet
  facet normal -0.499999 0 0.866026
    outer loop
      vertex 0 2 4.65
      vertex 2.90119 0 6.325
      vertex 2.90119 2 6.325
    endloop
  endfacet
  facet normal -0.499999 0 0.866026
    outer loop
      vertex 2.90119 0 6.325
      vertex 0 2 4.65
      vertex 0 0 4.65
    endloop
  endfacet
  facet normal 0 -1 0
    outer loop
      vertex 0 0 11.35
      vertex 0 0 15.5
      vertex -1.94114 0 15.2444
    endloop
  endfacet
  facet normal 0 -1 0
    outer loop
      vertex 0 0 11.35
      vertex -1.94114 0 15.2444
      vertex -3.75 0 14.4952
    endloop
  endfacet
  facet normal 0 -1 0
    outer loop
      vertex 0 0 15.5
      vertex 0 0 11.35
      vertex 1.94114 0 15.2444
    endloop
  endfacet
  facet normal 0 -1 0
    outer loop
      vertex -2.90119 0 9.675
      vertex -3.75 0 14.4952
      vertex -5.3033 0 13.3033
    endloop
  endfacet
  facet normal 0 -1 -0
    outer loop
      vertex 1.94114 0 15.2444
      vertex 0 0 11.35
      vertex 3.75 0 14.4952
    endloop
  endfacet
  facet normal 0 -1 0
    outer loop
      vertex -2.90119 0 9.675
      vertex -5.3033 0 13.3033
      vertex -6.49519 0 11.75
    endloop
  endfacet
  facet normal 0 -1 0
    outer loop
      vertex 2.90119 0 9.675
      vertex 3.75 0 14.4952
      vertex 0 0 11.35
    endloop
  endfacet
  facet normal 0 -1 -0
    outer loop
      vertex 3.75 0 14.4952
      vertex 2.90119 0 9.675
      vertex 5.3033 0 13.3033
    endloop
  endfacet
  facet normal 0 -1 0
    outer loop
      vertex -2.90119 0 9.675
      vertex -6.49519 0 11.75
      vertex -7.24444 0 9.94114
    endloop
  endfacet
  facet normal 0 -1 0
    outer loop
      vertex -3.75 0 14.4952
      vertex -2.90119 0 9.675
      vertex 0 0 11.35
    endloop
  endfacet
  facet normal 0 -1 0
    outer loop
      vertex -7.5 0 8
      vertex -2.90119 0 9.675
      vertex -7.24444 0 9.94114
    endloop
  endfacet
  facet normal 0 -1 0
    outer loop
      vertex -7.5 0 8
      vertex -2.90119 0 6.325
      vertex -2.90119 0 9.675
    endloop
  endfacet
  facet normal 0 -1 0
    outer loop
      vertex -7.24444 0 6.05886
      vertex -2.90119 0 6.325
      vertex -7.5 0 8
    endloop
  endfacet
  facet normal 0 -1 0
    outer loop
      vertex -6.49519 0 4.25
      vertex -2.90119 0 6.325
      vertex -7.24444 0 6.05886
    endloop
  endfacet
  facet normal 0 -1 0
    outer loop
      vertex -5.3033 0 2.6967
      vertex -2.90119 0 6.325
      vertex -6.49519 0 4.25
    endloop
  endfacet
  facet normal 0 -1 -0
    outer loop
      vertex 5.3033 0 13.3033
      vertex 2.90119 0 9.675
      vertex 6.49519 0 11.75
    endloop
  endfacet
  facet normal 0 -1 -0
    outer loop
      vertex 6.49519 0 11.75
      vertex 2.90119 0 9.675
      vertex 7.24444 0 9.94114
    endloop
  endfacet
  facet normal 0 -1 0
    outer loop
      vertex 2.90119 0 9.675
      vertex 7.5 0 8
      vertex 7.24444 0 9.94114
    endloop
  endfacet
  facet normal 0 -1 0
    outer loop
      vertex 2.90119 0 6.325
      vertex 7.5 0 8
      vertex 2.90119 0 9.675
    endloop
  endfacet
  facet normal 0 -1 0
    outer loop
      vertex 2.90119 0 6.325
      vertex 7.24444 0 6.05886
      vertex 7.5 0 8
    endloop
  endfacet
  facet normal 0 -1 0
    outer loop
      vertex 2.90119 0 6.325
      vertex 6.80585 0 5
      vertex 7.24444 0 6.05886
    endloop
  endfacet
  facet normal 0 -1 0
    outer loop
      vertex 0 0 0.5
      vertex 2.90119 0 6.325
      vertex 0 0 4.65
    endloop
  endfacet
  facet normal 0 -1 -0
    outer loop
      vertex 2.90119 0 6.325
      vertex 0 0 0.5
      vertex 6.80585 0 5
    endloop
  endfacet
  facet normal 0 -1 0
    outer loop
      vertex -3.75 0 1.50481
      vertex -2.90119 0 6.325
      vertex -5.3033 0 2.6967
    endloop
  endfacet
  facet normal 0 -1 -0
    outer loop
      vertex -2.90119 0 6.325
      vertex -3.75 0 1.50481
      vertex 0 0 4.65
    endloop
  endfacet
  facet normal 0 -1 0
    outer loop
      vertex -1.94114 0 0.755556
      vertex 0 0 4.65
      vertex -3.75 0 1.50481
    endloop
  endfacet
  facet normal 0 -1 -0
    outer loop
      vertex 0 0 4.65
      vertex -1.94114 0 0.755556
      vertex 0 0 0.5
    endloop
  endfacet
  facet normal 0 -1 0
    outer loop
      vertex 0 0 0
      vertex 6.80585 0 5
      vertex 0 0 0.5
    endloop
  endfacet
  facet normal 0 -1 -0
    outer loop
      vertex 6.80585 0 5
      vertex 0 0 0
      vertex 40 0 0
    endloop
  endfacet
  facet normal 0 -1 0
    outer loop
      vertex 6.80585 0 5
      vertex 40 0 0
      vertex 40 0 5
    endloop
  endfacet
  facet normal 1 -0 0
    outer loop
      vertex 40 0 5
      vertex 40 10 0
      vertex 40 10 5
    endloop
  endfacet
  facet normal 1 0 0
    outer loop
      vertex 40 10 0
      vertex 40 0 5
      vertex 40 0 0
    endloop
  endfacet
  facet normal 0 0 1
    outer loop
      vertex 40 10 5
      vertex 35.1 5 5
      vertex 40 0 5
    endloop
  endfacet
  facet normal 0 0 1
    outer loop
      vertex 40 10 5
      vertex 33.425 7.90119 5
      vertex 35.1 5 5
    endloop
  endfacet
  facet normal 0 0 1
    outer loop
      vertex 40 10 5
      vertex 30.075 7.90119 5
      vertex 33.425 7.90119 5
    endloop
  endfacet
  facet normal 0 0 1
    outer loop
      vertex 30.075 7.90119 5
      vertex 18.6 5 5
      vertex 28.4 5 5
    endloop
  endfacet
  facet normal 0 0 1
    outer loop
      vertex 30.075 7.90119 5
      vertex 16.925 7.90119 5
      vertex 18.6 5 5
    endloop
  endfacet
  facet normal 0 0 1
    outer loop
      vertex 40 10 5
      vertex 16.925 7.90119 5
      vertex 30.075 7.90119 5
    endloop
  endfacet
  facet normal -0 0 1
    outer loop
      vertex 7 10 5
      vertex 16.925 7.90119 5
      vertex 40 10 5
    endloop
  endfacet
  facet normal 0 0 1
    outer loop
      vertex 13.575 7.90119 5
      vertex 7 10 5
      vertex 11.9 5 5
    endloop
  endfacet
  facet normal 0 0 1
    outer loop
      vertex 16.925 7.90119 5
      vertex 7 10 5
      vertex 13.575 7.90119 5
    endloop
  endfacet
  facet normal -0 0 1
    outer loop
      vertex 33.425 2.09881 5
      vertex 40 0 5
      vertex 35.1 5 5
    endloop
  endfacet
  facet normal -0 0 1
    outer loop
      vertex 30.075 2.09881 5
      vertex 40 0 5
      vertex 33.425 2.09881 5
    endloop
  endfacet
  facet normal -0 0 1
    outer loop
      vertex 18.6 5 5
      vertex 30.075 2.09881 5
      vertex 28.4 5 5
    endloop
  endfacet
  facet normal 0 0 1
    outer loop
      vertex 16.925 2.09881 5
      vertex 30.075 2.09881 5
      vertex 18.6 5 5
    endloop
  endfacet
  facet normal -0 0 1
    outer loop
      vertex 16.925 2.09881 5
      vertex 40 0 5
      vertex 30.075 2.09881 5
    endloop
  endfacet
  facet normal 0 0 1
    outer loop
      vertex 6.80585 0 5
      vertex 16.925 2.09881 5
      vertex 13.575 2.09881 5
    endloop
  endfacet
  facet normal 0 0 1
    outer loop
      vertex 7 5 5
      vertex 11.9 5 5
      vertex 7 10 5
    endloop
  endfacet
  facet normal 0 0 1
    outer loop
      vertex 6.80585 0 5
      vertex 11.9 5 5
      vertex 7 5 5
    endloop
  endfacet
  facet normal 0 0 1
    outer loop
      vertex 6.80585 0 5
      vertex 7 5 5
      vertex 6.80585 5 5
    endloop
  endfacet
  facet normal 0 0 1
    outer loop
      vertex 16.925 2.09881 5
      vertex 6.80585 0 5
      vertex 40 0 5
    endloop
  endfacet
  facet normal 0 0 1
    outer loop
      vertex 11.9 5 5
      vertex 6.80585 0 5
      vertex 13.575 2.09881 5
    endloop
  endfacet
  facet normal 0 0 -1
    outer loop
      vertex 40 0 0
      vertex 33.25 5 0
      vertex 40 10 0
    endloop
  endfacet
  facet normal 0 0 -1
    outer loop
      vertex 40 0 0
      vertex 33.1766 4.53648 0
      vertex 33.25 5 0
    endloop
  endfacet
  facet normal 0 0 -1
    outer loop
      vertex 40 0 0
      vertex 32.9635 4.11832 0
      vertex 33.1766 4.53648 0
    endloop
  endfacet
  facet normal 0 0 -1
    outer loop
      vertex 40 0 0
      vertex 32.6317 3.78648 0
      vertex 32.9635 4.11832 0
    endloop
  endfacet
  facet normal 0 0 -1
    outer loop
      vertex 40 0 0
      vertex 32.2135 3.57342 0
      vertex 32.6317 3.78648 0
    endloop
  endfacet
  facet normal 0 0 -1
    outer loop
      vertex 40 0 0
      vertex 31.75 3.5 0
      vertex 32.2135 3.57342 0
    endloop
  endfacet
  facet normal 0 0 -1
    outer loop
      vertex 40 0 0
      vertex 31.2865 3.57342 0
      vertex 31.75 3.5 0
    endloop
  endfacet
  facet normal 0 0 -1
    outer loop
      vertex 30.3234 4.53648 0
      vertex 16.75 5 0
      vertex 30.25 5 0
    endloop
  endfacet
  facet normal 0 0 -1
    outer loop
      vertex 16.6766 4.53648 0
      vertex 30.3234 4.53648 0
      vertex 30.5365 4.11832 0
    endloop
  endfacet
  facet normal 0 0 -1
    outer loop
      vertex 16.4635 4.11832 0
      vertex 30.5365 4.11832 0
      vertex 30.8683 3.78648 0
    endloop
  endfacet
  facet normal 0 0 -1
    outer loop
      vertex 16.1317 3.78648 0
      vertex 30.8683 3.78648 0
      vertex 31.2865 3.57342 0
    endloop
  endfacet
  facet normal 0 0 -1
    outer loop
      vertex 15.7135 3.57342 0
      vertex 31.2865 3.57342 0
      vertex 40 0 0
    endloop
  endfacet
  facet normal 0 0 -1
    outer loop
      vertex 30.3234 4.53648 0
      vertex 16.6766 4.53648 0
      vertex 16.75 5 0
    endloop
  endfacet
  facet normal 0 0 -1
    outer loop
      vertex 30.5365 4.11832 0
      vertex 16.4635 4.11832 0
      vertex 16.6766 4.53648 0
    endloop
  endfacet
  facet normal 0 0 -1
    outer loop
      vertex 30.8683 3.78648 0
      vertex 16.1317 3.78648 0
      vertex 16.4635 4.11832 0
    endloop
  endfacet
  facet normal 0 0 -1
    outer loop
      vertex 31.2865 3.57342 0
      vertex 15.7135 3.57342 0
      vertex 16.1317 3.78648 0
    endloop
  endfacet
  facet normal 0 0 -1
    outer loop
      vertex 40 0 0
      vertex 15.25 3.5 0
      vertex 15.7135 3.57342 0
    endloop
  endfacet
  facet normal 0 0 -1
    outer loop
      vertex 13.8234 4.53648 0
      vertex 7 5 0
      vertex 13.75 5 0
    endloop
  endfacet
  facet normal 0 0 -1
    outer loop
      vertex 14.0365 4.11832 0
      vertex 7 5 0
      vertex 13.8234 4.53648 0
    endloop
  endfacet
  facet normal 0 0 -1
    outer loop
      vertex 14.3683 3.78648 0
      vertex 7 5 0
      vertex 14.0365 4.11832 0
    endloop
  endfacet
  facet normal 0 0 -1
    outer loop
      vertex 0 0 0
      vertex 14.3683 3.78648 0
      vertex 14.7865 3.57342 0
    endloop
  endfacet
  facet normal 0 0 -1
    outer loop
      vertex 0 0 0
      vertex 15.25 3.5 0
      vertex 40 0 0
    endloop
  endfacet
  facet normal 0 0 -1
    outer loop
      vertex 0 0 0
      vertex 14.7865 3.57342 0
      vertex 15.25 3.5 0
    endloop
  endfacet
  facet normal -0 0 -1
    outer loop
      vertex 14.3683 3.78648 0
      vertex 0 0 0
      vertex 7 5 0
    endloop
  endfacet
  facet normal -0 0 -1
    outer loop
      vertex 7 5 0
      vertex 0 0 0
      vertex 0 5 0
    endloop
  endfacet
  facet normal 0 0 -1
    outer loop
      vertex 33.1766 5.46352 0
      vertex 40 10 0
      vertex 33.25 5 0
    endloop
  endfacet
  facet normal 0 0 -1
    outer loop
      vertex 32.9635 5.88168 0
      vertex 40 10 0
      vertex 33.1766 5.46352 0
    endloop
  endfacet
  facet normal 0 0 -1
    outer loop
      vertex 32.6317 6.21352 0
      vertex 40 10 0
      vertex 32.9635 5.88168 0
    endloop
  endfacet
  facet normal 0 0 -1
    outer loop
      vertex 32.2135 6.42658 0
      vertex 40 10 0
      vertex 32.6317 6.21352 0
    endloop
  endfacet
  facet normal 0 0 -1
    outer loop
      vertex 31.75 6.5 0
      vertex 40 10 0
      vertex 32.2135 6.42658 0
    endloop
  endfacet
  facet normal 0 0 -1
    outer loop
      vertex 31.2865 6.42658 0
      vertex 40 10 0
      vertex 31.75 6.5 0
    endloop
  endfacet
  facet normal 0 0 -1
    outer loop
      vertex 16.75 5 0
      vertex 30.3234 5.46352 0
      vertex 30.25 5 0
    endloop
  endfacet
  facet normal 0 0 -1
    outer loop
      vertex 16.6766 5.46352 0
      vertex 30.3234 5.46352 0
      vertex 16.75 5 0
    endloop
  endfacet
  facet normal 0 0 -1
    outer loop
      vertex 30.3234 5.46352 0
      vertex 16.6766 5.46352 0
      vertex 30.5365 5.88168 0
    endloop
  endfacet
  facet normal 0 0 -1
    outer loop
      vertex 16.4635 5.88168 0
      vertex 30.5365 5.88168 0
      vertex 16.6766 5.46352 0
    endloop
  endfacet
  facet normal 0 0 -1
    outer loop
      vertex 30.5365 5.88168 0
      vertex 16.4635 5.88168 0
      vertex 30.8683 6.21352 0
    endloop
  endfacet
  facet normal 0 0 -1
    outer loop
      vertex 16.1317 6.21352 0
      vertex 30.8683 6.21352 0
      vertex 16.4635 5.88168 0
    endloop
  endfacet
  facet normal 0 0 -1
    outer loop
      vertex 30.8683 6.21352 0
      vertex 16.1317 6.21352 0
      vertex 31.2865 6.42658 0
    endloop
  endfacet
  facet normal 0 0 -1
    outer loop
      vertex 15.7135 6.42658 0
      vertex 31.2865 6.42658 0
      vertex 16.1317 6.21352 0
    endloop
  endfacet
  facet normal 0 0 -1
    outer loop
      vertex 31.2865 6.42658 0
      vertex 15.7135 6.42658 0
      vertex 40 10 0
    endloop
  endfacet
  facet normal 0 0 -1
    outer loop
      vertex 7 10 0
      vertex 15.7135 6.42658 0
      vertex 15.25 6.5 0
    endloop
  endfacet
  facet normal 0 0 -1
    outer loop
      vertex 7 5 0
      vertex 13.8234 5.46352 0
      vertex 13.75 5 0
    endloop
  endfacet
  facet normal 0 0 -1
    outer loop
      vertex 7 5 0
      vertex 14.0365 5.88168 0
      vertex 13.8234 5.46352 0
    endloop
  endfacet
  facet normal 0 0 -1
    outer loop
      vertex 7 10 0
      vertex 14.0365 5.88168 0
      vertex 7 5 0
    endloop
  endfacet
  facet normal 0 0 -1
    outer loop
      vertex 14.0365 5.88168 0
      vertex 7 10 0
      vertex 14.3683 6.21352 0
    endloop
  endfacet
  facet normal 0 0 -1
    outer loop
      vertex 15.7135 6.42658 0
      vertex 7 10 0
      vertex 40 10 0
    endloop
  endfacet
  facet normal 0 0 -1
    outer loop
      vertex 14.7865 6.42658 0
      vertex 7 10 0
      vertex 15.25 6.5 0
    endloop
  endfacet
  facet normal 0 0 -1
    outer loop
      vertex 14.3683 6.21352 0
      vertex 7 10 0
      vertex 14.7865 6.42658 0
    endloop
  endfacet
  facet normal -1 0 0
    outer loop
      vertex 0 0 0
      vertex 0 5 0.5
      vertex 0 5 0
    endloop
  endfacet
  facet normal -1 -0 0
    outer loop
      vertex 0 5 0.5
      vertex 0 0 0
      vertex 0 0 0.5
    endloop
  endfacet
  facet normal 0 1 -0
    outer loop
      vertex 40 10 0
      vertex 7 10 5
      vertex 40 10 5
    endloop
  endfacet
  facet normal 0 1 0
    outer loop
      vertex 7 10 5
      vertex 40 10 0
      vertex 7 10 0
    endloop
  endfacet
  facet normal -0.608762 0 -0.793353
    outer loop
      vertex -5.3033 0 2.6967
      vertex -3.75 5 1.50481
      vertex -3.75 0 1.50481
    endloop
  endfacet
  facet normal -0.608762 0 -0.793353
    outer loop
      vertex -3.75 5 1.50481
      vertex -5.3033 0 2.6967
      vertex -5.3033 5 2.6967
    endloop
  endfacet
  facet normal 0.92388 -0 0.382682
    outer loop
      vertex 6.49519 0 11.75
      vertex 7.24444 5 9.94114
      vertex 6.49519 5 11.75
    endloop
  endfacet
  facet normal 0.92388 0 0.382682
    outer loop
      vertex 7.24444 5 9.94114
      vertex 6.49519 0 11.75
      vertex 7.24444 0 9.94114
    endloop
  endfacet
  facet normal 0.991445 -0 0.130528
    outer loop
      vertex 7.24444 0 9.94114
      vertex 7.5 5 8
      vertex 7.24444 5 9.94114
    endloop
  endfacet
  facet normal 0.991445 0 0.130528
    outer loop
      vertex 7.5 5 8
      vertex 7.24444 0 9.94114
      vertex 7.5 0 8
    endloop
  endfacet
  facet normal -0.130548 0 0.991442
    outer loop
      vertex -1.94114 5 15.2444
      vertex 0 0 15.5
      vertex 0 5 15.5
    endloop
  endfacet
  facet normal -0.130548 0 0.991442
    outer loop
      vertex 0 0 15.5
      vertex -1.94114 5 15.2444
      vertex -1.94114 0 15.2444
    endloop
  endfacet
  facet normal -0.991445 0 -0.130528
    outer loop
      vertex -7.24444 0 6.05886
      vertex -7.5 5 8
      vertex -7.24444 5 6.05886
    endloop
  endfacet
  facet normal -0.991445 -0 -0.130528
    outer loop
      vertex -7.5 5 8
      vertex -7.24444 0 6.05886
      vertex -7.5 0 8
    endloop
  endfacet
  facet normal 0.793353 -0 0.608762
    outer loop
      vertex 5.3033 0 13.3033
      vertex 6.49519 5 11.75
      vertex 5.3033 5 13.3033
    endloop
  endfacet
  facet normal 0.793353 0 0.608762
    outer loop
      vertex 6.49519 5 11.75
      vertex 5.3033 0 13.3033
      vertex 6.49519 0 11.75
    endloop
  endfacet
  facet normal -0.793353 0 0.608762
    outer loop
      vertex -6.49519 0 11.75
      vertex -5.3033 5 13.3033
      vertex -6.49519 5 11.75
    endloop
  endfacet
  facet normal -0.793353 0 0.608762
    outer loop
      vertex -5.3033 5 13.3033
      vertex -6.49519 0 11.75
      vertex -5.3033 0 13.3033
    endloop
  endfacet
  facet normal 0.130548 0 0.991442
    outer loop
      vertex 0 5 15.5
      vertex 1.94114 0 15.2444
      vertex 1.94114 5 15.2444
    endloop
  endfacet
  facet normal 0.130548 0 0.991442
    outer loop
      vertex 1.94114 0 15.2444
      vertex 0 5 15.5
      vertex 0 0 15.5
    endloop
  endfacet
  facet normal 0.991445 0 -0.130528
    outer loop
      vertex 7.5 0 8
      vertex 7.24444 5 6.05886
      vertex 7.5 5 8
    endloop
  endfacet
  facet normal 0.991445 0 -0.130528
    outer loop
      vertex 7.24444 5 6.05886
      vertex 7.5 0 8
      vertex 7.24444 0 6.05886
    endloop
  endfacet
  facet normal -0.38266 0 0.923889
    outer loop
      vertex -3.75 5 14.4952
      vertex -1.94114 0 15.2444
      vertex -1.94114 5 15.2444
    endloop
  endfacet
  facet normal -0.38266 0 0.923889
    outer loop
      vertex -1.94114 0 15.2444
      vertex -3.75 5 14.4952
      vertex -3.75 0 14.4952
    endloop
  endfacet
  facet normal 0.38266 0 0.923889
    outer loop
      vertex 1.94114 5 15.2444
      vertex 3.75 0 14.4952
      vertex 3.75 5 14.4952
    endloop
  endfacet
  facet normal 0.38266 0 0.923889
    outer loop
      vertex 3.75 0 14.4952
      vertex 1.94114 5 15.2444
      vertex 1.94114 0 15.2444
    endloop
  endfacet
  facet normal 0.608765 0 0.793351
    outer loop
      vertex 3.75 5 14.4952
      vertex 5.3033 0 13.3033
      vertex 5.3033 5 13.3033
    endloop
  endfacet
  facet normal 0.608765 0 0.793351
    outer loop
      vertex 5.3033 0 13.3033
      vertex 3.75 5 14.4952
      vertex 3.75 0 14.4952
    endloop
  endfacet
  facet normal -0.130526 0 -0.991445
    outer loop
      vertex -1.94114 0 0.755556
      vertex 0 5 0.5
      vertex 0 0 0.5
    endloop
  endfacet
  facet normal -0.130526 0 -0.991445
    outer loop
      vertex 0 5 0.5
      vertex -1.94114 0 0.755556
      vertex -1.94114 5 0.755556
    endloop
  endfacet
  facet normal -0.382683 0 -0.92388
    outer loop
      vertex -3.75 0 1.50481
      vertex -1.94114 5 0.755556
      vertex -1.94114 0 0.755556
    endloop
  endfacet
  facet normal -0.382683 0 -0.92388
    outer loop
      vertex -1.94114 5 0.755556
      vertex -3.75 0 1.50481
      vertex -3.75 5 1.50481
    endloop
  endfacet
  facet normal -0.608765 0 0.793351
    outer loop
      vertex -5.3033 5 13.3033
      vertex -3.75 0 14.4952
      vertex -3.75 5 14.4952
    endloop
  endfacet
  facet normal -0.608765 0 0.793351
    outer loop
      vertex -3.75 0 14.4952
      vertex -5.3033 5 13.3033
      vertex -5.3033 0 13.3033
    endloop
  endfacet
  facet normal -0.92388 0 -0.382682
    outer loop
      vertex -6.49519 0 4.25
      vertex -7.24444 5 6.05886
      vertex -6.49519 5 4.25
    endloop
  endfacet
  facet normal -0.92388 -0 -0.382682
    outer loop
      vertex -7.24444 5 6.05886
      vertex -6.49519 0 4.25
      vertex -7.24444 0 6.05886
    endloop
  endfacet
  facet normal 0.923881 0 -0.38268
    outer loop
      vertex 7.24444 0 6.05886
      vertex 6.80585 5 5
      vertex 7.24444 5 6.05886
    endloop
  endfacet
  facet normal 0.923881 0 -0.38268
    outer loop
      vertex 6.80585 5 5
      vertex 7.24444 0 6.05886
      vertex 6.80585 0 5
    endloop
  endfacet
  facet normal -0.793353 0 -0.608762
    outer loop
      vertex -5.3033 0 2.6967
      vertex -6.49519 5 4.25
      vertex -5.3033 5 2.6967
    endloop
  endfacet
  facet normal -0.793353 -0 -0.608762
    outer loop
      vertex -6.49519 5 4.25
      vertex -5.3033 0 2.6967
      vertex -6.49519 0 4.25
    endloop
  endfacet
  facet normal -0.92388 0 0.382682
    outer loop
      vertex -7.24444 0 9.94114
      vertex -6.49519 5 11.75
      vertex -7.24444 5 9.94114
    endloop
  endfacet
  facet normal -0.92388 0 0.382682
    outer loop
      vertex -6.49519 5 11.75
      vertex -7.24444 0 9.94114
      vertex -6.49519 0 11.75
    endloop
  endfacet
  facet normal -0.991445 0 0.130528
    outer loop
      vertex -7.5 0 8
      vertex -7.24444 5 9.94114
      vertex -7.5 5 8
    endloop
  endfacet
  facet normal -0.991445 0 0.130528
    outer loop
      vertex -7.24444 5 9.94114
      vertex -7.5 0 8
      vertex -7.24444 0 9.94114
    endloop
  endfacet
  facet normal -1 0 0
    outer loop
      vertex 7 5 0
      vertex 7 10 5
      vertex 7 10 0
    endloop
  endfacet
  facet normal -1 -0 0
    outer loop
      vertex 7 10 5
      vertex 7 5 0
      vertex 7 5 5
    endloop
  endfacet
  facet normal 0 1 -0
    outer loop
      vertex 7 5 0
      vertex 6.80585 5 5
      vertex 7 5 5
    endloop
  endfacet
  facet normal 0 1 0
    outer loop
      vertex 6.80585 5 5
      vertex 0 5 0.5
      vertex 0 5 5
    endloop
  endfacet
  facet normal 0 1 0
    outer loop
      vertex 6.80585 5 5
      vertex 7 5 0
      vertex 0 5 0.5
    endloop
  endfacet
  facet normal 0 1 0
    outer loop
      vertex 0 5 0.5
      vertex 7 5 0
      vertex 0 5 0
    endloop
  endfacet
  facet normal 0.453951 -0.891027 0
    outer loop
      vertex 14.3683 6.21352 0
      vertex 14.7865 6.42658 3
      vertex 14.3683 6.21352 3
    endloop
  endfacet
  facet normal 0.453951 -0.891027 0
    outer loop
      vertex 14.7865 6.42658 3
      vertex 14.3683 6.21352 0
      vertex 14.7865 6.42658 0
    endloop
  endfacet
  facet normal 0.156453 -0.987685 0
    outer loop
      vertex 14.7865 6.42658 0
      vertex 15.25 6.5 3
      vertex 14.7865 6.42658 3
    endloop
  endfacet
  facet normal 0.156453 -0.987685 0
    outer loop
      vertex 15.25 6.5 3
      vertex 14.7865 6.42658 0
      vertex 15.25 6.5 0
    endloop
  endfacet
  facet normal 0.707149 -0.707064 0
    outer loop
      vertex 14.0365 5.88168 3
      vertex 14.3683 6.21352 0
      vertex 14.3683 6.21352 3
    endloop
  endfacet
  facet normal 0.707149 -0.707064 0
    outer loop
      vertex 14.3683 6.21352 0
      vertex 14.0365 5.88168 3
      vertex 14.0365 5.88168 0
    endloop
  endfacet
  facet normal 0.987693 -0.156405 0
    outer loop
      vertex 13.75 5 3
      vertex 13.8234 5.46352 0
      vertex 13.8234 5.46352 3
    endloop
  endfacet
  facet normal 0.987693 -0.156405 0
    outer loop
      vertex 13.8234 5.46352 0
      vertex 13.75 5 3
      vertex 13.75 5 0
    endloop
  endfacet
  facet normal 0.890975 -0.454053 0
    outer loop
      vertex 13.8234 5.46352 3
      vertex 14.0365 5.88168 0
      vertex 14.0365 5.88168 3
    endloop
  endfacet
  facet normal 0.890975 -0.454053 0
    outer loop
      vertex 14.0365 5.88168 0
      vertex 13.8234 5.46352 3
      vertex 13.8234 5.46352 0
    endloop
  endfacet
  facet normal 0.890975 0.454053 0
    outer loop
      vertex 14.0365 4.11832 3
      vertex 13.8234 4.53648 0
      vertex 13.8234 4.53648 3
    endloop
  endfacet
  facet normal 0.890975 0.454053 0
    outer loop
      vertex 13.8234 4.53648 0
      vertex 14.0365 4.11832 3
      vertex 14.0365 4.11832 0
    endloop
  endfacet
  facet normal -0.987693 0.156405 0
    outer loop
      vertex 16.6766 4.53648 0
      vertex 16.75 5 3
      vertex 16.75 5 0
    endloop
  endfacet
  facet normal -0.987693 0.156405 0
    outer loop
      vertex 16.75 5 3
      vertex 16.6766 4.53648 0
      vertex 16.6766 4.53648 3
    endloop
  endfacet
  facet normal -0.707149 -0.707064 0
    outer loop
      vertex 16.4635 5.88168 0
      vertex 16.1317 6.21352 3
      vertex 16.1317 6.21352 0
    endloop
  endfacet
  facet normal -0.707149 -0.707064 0
    outer loop
      vertex 16.1317 6.21352 3
      vertex 16.4635 5.88168 0
      vertex 16.4635 5.88168 3
    endloop
  endfacet
  facet normal -0.453951 0.891027 0
    outer loop
      vertex 16.1317 3.78648 0
      vertex 15.7135 3.57342 3
      vertex 16.1317 3.78648 3
    endloop
  endfacet
  facet normal -0.453951 0.891027 0
    outer loop
      vertex 15.7135 3.57342 3
      vertex 16.1317 3.78648 0
      vertex 15.7135 3.57342 0
    endloop
  endfacet
  facet normal 0.987693 0.156405 0
    outer loop
      vertex 13.8234 4.53648 3
      vertex 13.75 5 0
      vertex 13.75 5 3
    endloop
  endfacet
  facet normal 0.987693 0.156405 0
    outer loop
      vertex 13.75 5 0
      vertex 13.8234 4.53648 3
      vertex 13.8234 4.53648 0
    endloop
  endfacet
  facet normal -0.890975 -0.454053 0
    outer loop
      vertex 16.6766 5.46352 0
      vertex 16.4635 5.88168 3
      vertex 16.4635 5.88168 0
    endloop
  endfacet
  facet normal -0.890975 -0.454053 0
    outer loop
      vertex 16.4635 5.88168 3
      vertex 16.6766 5.46352 0
      vertex 16.6766 5.46352 3
    endloop
  endfacet
  facet normal -0.987693 -0.156405 0
    outer loop
      vertex 16.75 5 0
      vertex 16.6766 5.46352 3
      vertex 16.6766 5.46352 0
    endloop
  endfacet
  facet normal -0.987693 -0.156405 0
    outer loop
      vertex 16.6766 5.46352 3
      vertex 16.75 5 0
      vertex 16.75 5 3
    endloop
  endfacet
  facet normal -0.156453 0.987685 0
    outer loop
      vertex 15.7135 3.57342 0
      vertex 15.25 3.5 3
      vertex 15.7135 3.57342 3
    endloop
  endfacet
  facet normal -0.156453 0.987685 0
    outer loop
      vertex 15.25 3.5 3
      vertex 15.7135 3.57342 0
      vertex 15.25 3.5 0
    endloop
  endfacet
  facet normal 0.453951 0.891027 -0
    outer loop
      vertex 14.7865 3.57342 0
      vertex 14.3683 3.78648 3
      vertex 14.7865 3.57342 3
    endloop
  endfacet
  facet normal 0.453951 0.891027 0
    outer loop
      vertex 14.3683 3.78648 3
      vertex 14.7865 3.57342 0
      vertex 14.3683 3.78648 0
    endloop
  endfacet
  facet normal 0.707149 0.707064 0
    outer loop
      vertex 14.3683 3.78648 3
      vertex 14.0365 4.11832 0
      vertex 14.0365 4.11832 3
    endloop
  endfacet
  facet normal 0.707149 0.707064 0
    outer loop
      vertex 14.0365 4.11832 0
      vertex 14.3683 3.78648 3
      vertex 14.3683 3.78648 0
    endloop
  endfacet
  facet normal -0 0 1
    outer loop
      vertex 16.4635 5.88168 3
      vertex 18.6 5 3
      vertex 16.925 7.90119 3
    endloop
  endfacet
  facet normal 0 0 1
    outer loop
      vertex 16.6766 4.53648 3
      vertex 18.6 5 3
      vertex 16.75 5 3
    endloop
  endfacet
  facet normal 0 0 1
    outer loop
      vertex 18.6 5 3
      vertex 16.6766 5.46352 3
      vertex 16.75 5 3
    endloop
  endfacet
  facet normal 0 0 1
    outer loop
      vertex 18.6 5 3
      vertex 16.4635 5.88168 3
      vertex 16.6766 5.46352 3
    endloop
  endfacet
  facet normal 0 0 1
    outer loop
      vertex 16.925 7.90119 3
      vertex 16.1317 6.21352 3
      vertex 16.4635 5.88168 3
    endloop
  endfacet
  facet normal 0 0 1
    outer loop
      vertex 16.925 7.90119 3
      vertex 15.7135 6.42658 3
      vertex 16.1317 6.21352 3
    endloop
  endfacet
  facet normal 0 0 1
    outer loop
      vertex 16.925 7.90119 3
      vertex 15.25 6.5 3
      vertex 15.7135 6.42658 3
    endloop
  endfacet
  facet normal -0 0 1
    outer loop
      vertex 13.575 7.90119 3
      vertex 15.25 6.5 3
      vertex 16.925 7.90119 3
    endloop
  endfacet
  facet normal 0 0 1
    outer loop
      vertex 15.25 6.5 3
      vertex 13.575 7.90119 3
      vertex 14.7865 6.42658 3
    endloop
  endfacet
  facet normal 0 0 1
    outer loop
      vertex 14.0365 5.88168 3
      vertex 11.9 5 3
      vertex 13.8234 5.46352 3
    endloop
  endfacet
  facet normal 0 0 1
    outer loop
      vertex 11.9 5 3
      vertex 14.0365 5.88168 3
      vertex 13.575 7.90119 3
    endloop
  endfacet
  facet normal 0 0 1
    outer loop
      vertex 14.3683 6.21352 3
      vertex 13.575 7.90119 3
      vertex 14.0365 5.88168 3
    endloop
  endfacet
  facet normal 0 0 1
    outer loop
      vertex 14.7865 6.42658 3
      vertex 13.575 7.90119 3
      vertex 14.3683 6.21352 3
    endloop
  endfacet
  facet normal 0 0 1
    outer loop
      vertex 16.4635 4.11832 3
      vertex 18.6 5 3
      vertex 16.6766 4.53648 3
    endloop
  endfacet
  facet normal 0 0 1
    outer loop
      vertex 18.6 5 3
      vertex 16.4635 4.11832 3
      vertex 16.925 2.09881 3
    endloop
  endfacet
  facet normal -0 0 1
    outer loop
      vertex 16.1317 3.78648 3
      vertex 16.925 2.09881 3
      vertex 16.4635 4.11832 3
    endloop
  endfacet
  facet normal -0 0 1
    outer loop
      vertex 15.7135 3.57342 3
      vertex 16.925 2.09881 3
      vertex 16.1317 3.78648 3
    endloop
  endfacet
  facet normal -0 0 1
    outer loop
      vertex 15.25 3.5 3
      vertex 16.925 2.09881 3
      vertex 15.7135 3.57342 3
    endloop
  endfacet
  facet normal 0 0 1
    outer loop
      vertex 13.575 2.09881 3
      vertex 15.25 3.5 3
      vertex 14.7865 3.57342 3
    endloop
  endfacet
  facet normal 0 0 1
    outer loop
      vertex 13.575 2.09881 3
      vertex 14.7865 3.57342 3
      vertex 14.3683 3.78648 3
    endloop
  endfacet
  facet normal 0 0 1
    outer loop
      vertex 15.25 3.5 3
      vertex 13.575 2.09881 3
      vertex 16.925 2.09881 3
    endloop
  endfacet
  facet normal 0 0 1
    outer loop
      vertex 14.0365 4.11832 3
      vertex 13.575 2.09881 3
      vertex 14.3683 3.78648 3
    endloop
  endfacet
  facet normal 0 0 1
    outer loop
      vertex 11.9 5 3
      vertex 14.0365 4.11832 3
      vertex 13.8234 4.53648 3
    endloop
  endfacet
  facet normal -0 0 1
    outer loop
      vertex 11.9 5 3
      vertex 13.8234 4.53648 3
      vertex 13.75 5 3
    endloop
  endfacet
  facet normal 0 0 1
    outer loop
      vertex 13.8234 5.46352 3
      vertex 11.9 5 3
      vertex 13.75 5 3
    endloop
  endfacet
  facet normal 0 0 1
    outer loop
      vertex 14.0365 4.11832 3
      vertex 11.9 5 3
      vertex 13.575 2.09881 3
    endloop
  endfacet
  facet normal -0.453951 -0.891027 0
    outer loop
      vertex 15.7135 6.42658 0
      vertex 16.1317 6.21352 3
      vertex 15.7135 6.42658 3
    endloop
  endfacet
  facet normal -0.453951 -0.891027 -0
    outer loop
      vertex 16.1317 6.21352 3
      vertex 15.7135 6.42658 0
      vertex 16.1317 6.21352 0
    endloop
  endfacet
  facet normal -0.156453 -0.987685 0
    outer loop
      vertex 15.25 6.5 0
      vertex 15.7135 6.42658 3
      vertex 15.25 6.5 3
    endloop
  endfacet
  facet normal -0.156453 -0.987685 -0
    outer loop
      vertex 15.7135 6.42658 3
      vertex 15.25 6.5 0
      vertex 15.7135 6.42658 0
    endloop
  endfacet
  facet normal -0.707149 0.707064 0
    outer loop
      vertex 16.1317 3.78648 0
      vertex 16.4635 4.11832 3
      vertex 16.4635 4.11832 0
    endloop
  endfacet
  facet normal -0.707149 0.707064 0
    outer loop
      vertex 16.4635 4.11832 3
      vertex 16.1317 3.78648 0
      vertex 16.1317 3.78648 3
    endloop
  endfacet
  facet normal 0.156453 0.987685 -0
    outer loop
      vertex 15.25 3.5 0
      vertex 14.7865 3.57342 3
      vertex 15.25 3.5 3
    endloop
  endfacet
  facet normal 0.156453 0.987685 0
    outer loop
      vertex 14.7865 3.57342 3
      vertex 15.25 3.5 0
      vertex 14.7865 3.57342 0
    endloop
  endfacet
  facet normal -0.890975 0.454053 0
    outer loop
      vertex 16.4635 4.11832 0
      vertex 16.6766 4.53648 3
      vertex 16.6766 4.53648 0
    endloop
  endfacet
  facet normal -0.890975 0.454053 0
    outer loop
      vertex 16.6766 4.53648 3
      vertex 16.4635 4.11832 0
      vertex 16.4635 4.11832 3
    endloop
  endfacet
  facet normal 0 -1 0
    outer loop
      vertex 13.575 7.90119 3
      vertex 16.925 7.90119 5
      vertex 13.575 7.90119 5
    endloop
  endfacet
  facet normal 0 -1 -0
    outer loop
      vertex 16.925 7.90119 5
      vertex 13.575 7.90119 3
      vertex 16.925 7.90119 3
    endloop
  endfacet
  facet normal 0.866026 -0.499999 0
    outer loop
      vertex 11.9 5 5
      vertex 13.575 7.90119 3
      vertex 13.575 7.90119 5
    endloop
  endfacet
  facet normal 0.866026 -0.499999 0
    outer loop
      vertex 13.575 7.90119 3
      vertex 11.9 5 5
      vertex 11.9 5 3
    endloop
  endfacet
  facet normal 0 1 -0
    outer loop
      vertex 16.925 2.09881 3
      vertex 13.575 2.09881 5
      vertex 16.925 2.09881 5
    endloop
  endfacet
  facet normal 0 1 0
    outer loop
      vertex 13.575 2.09881 5
      vertex 16.925 2.09881 3
      vertex 13.575 2.09881 3
    endloop
  endfacet
  facet normal 0.866026 0.499999 0
    outer loop
      vertex 13.575 2.09881 5
      vertex 11.9 5 3
      vertex 11.9 5 5
    endloop
  endfacet
  facet normal 0.866026 0.499999 0
    outer loop
      vertex 11.9 5 3
      vertex 13.575 2.09881 5
      vertex 13.575 2.09881 3
    endloop
  endfacet
  facet normal -0.866026 0.499999 0
    outer loop
      vertex 16.925 2.09881 3
      vertex 18.6 5 5
      vertex 18.6 5 3
    endloop
  endfacet
  facet normal -0.866026 0.499999 0
    outer loop
      vertex 18.6 5 5
      vertex 16.925 2.09881 3
      vertex 16.925 2.09881 5
    endloop
  endfacet
  facet normal -0.866026 -0.499999 0
    outer loop
      vertex 18.6 5 3
      vertex 16.925 7.90119 5
      vertex 16.925 7.90119 3
    endloop
  endfacet
  facet normal -0.866026 -0.499999 0
    outer loop
      vertex 16.925 7.90119 5
      vertex 18.6 5 3
      vertex 18.6 5 5
    endloop
  endfacet
  facet normal 0.453951 -0.891027 0
    outer loop
      vertex 30.8683 6.21352 0
      vertex 31.2865 6.42658 3
      vertex 30.8683 6.21352 3
    endloop
  endfacet
  facet normal 0.453951 -0.891027 0
    outer loop
      vertex 31.2865 6.42658 3
      vertex 30.8683 6.21352 0
      vertex 31.2865 6.42658 0
    endloop
  endfacet
  facet normal 0.156453 -0.987685 0
    outer loop
      vertex 31.2865 6.42658 0
      vertex 31.75 6.5 3
      vertex 31.2865 6.42658 3
    endloop
  endfacet
  facet normal 0.156453 -0.987685 0
    outer loop
      vertex 31.75 6.5 3
      vertex 31.2865 6.42658 0
      vertex 31.75 6.5 0
    endloop
  endfacet
  facet normal 0.707149 -0.707064 0
    outer loop
      vertex 30.5365 5.88168 3
      vertex 30.8683 6.21352 0
      vertex 30.8683 6.21352 3
    endloop
  endfacet
  facet normal 0.707149 -0.707064 0
    outer loop
      vertex 30.8683 6.21352 0
      vertex 30.5365 5.88168 3
      vertex 30.5365 5.88168 0
    endloop
  endfacet
  facet normal 0.987693 -0.156405 0
    outer loop
      vertex 30.25 5 3
      vertex 30.3234 5.46352 0
      vertex 30.3234 5.46352 3
    endloop
  endfacet
  facet normal 0.987693 -0.156405 0
    outer loop
      vertex 30.3234 5.46352 0
      vertex 30.25 5 3
      vertex 30.25 5 0
    endloop
  endfacet
  facet normal 0.890975 -0.454053 0
    outer loop
      vertex 30.3234 5.46352 3
      vertex 30.5365 5.88168 0
      vertex 30.5365 5.88168 3
    endloop
  endfacet
  facet normal 0.890975 -0.454053 0
    outer loop
      vertex 30.5365 5.88168 0
      vertex 30.3234 5.46352 3
      vertex 30.3234 5.46352 0
    endloop
  endfacet
  facet normal 0.890975 0.454053 0
    outer loop
      vertex 30.5365 4.11832 3
      vertex 30.3234 4.53648 0
      vertex 30.3234 4.53648 3
    endloop
  endfacet
  facet normal 0.890975 0.454053 0
    outer loop
      vertex 30.3234 4.53648 0
      vertex 30.5365 4.11832 3
      vertex 30.5365 4.11832 0
    endloop
  endfacet
  facet normal -0.987693 0.156405 0
    outer loop
      vertex 33.1766 4.53648 0
      vertex 33.25 5 3
      vertex 33.25 5 0
    endloop
  endfacet
  facet normal -0.987693 0.156405 0
    outer loop
      vertex 33.25 5 3
      vertex 33.1766 4.53648 0
      vertex 33.1766 4.53648 3
    endloop
  endfacet
  facet normal -0.707149 -0.707064 0
    outer loop
      vertex 32.6317 6.21352 0
      vertex 32.9635 5.88168 3
      vertex 32.6317 6.21352 3
    endloop
  endfacet
  facet normal -0.707149 -0.707064 -0
    outer loop
      vertex 32.9635 5.88168 3
      vertex 32.6317 6.21352 0
      vertex 32.9635 5.88168 0
    endloop
  endfacet
  facet normal -0.453951 0.891027 0
    outer loop
      vertex 32.6317 3.78648 0
      vertex 32.2135 3.57342 3
      vertex 32.6317 3.78648 3
    endloop
  endfacet
  facet normal -0.453951 0.891027 0
    outer loop
      vertex 32.2135 3.57342 3
      vertex 32.6317 3.78648 0
      vertex 32.2135 3.57342 0
    endloop
  endfacet
  facet normal 0.987693 0.156405 0
    outer loop
      vertex 30.3234 4.53648 3
      vertex 30.25 5 0
      vertex 30.25 5 3
    endloop
  endfacet
  facet normal 0.987693 0.156405 0
    outer loop
      vertex 30.25 5 0
      vertex 30.3234 4.53648 3
      vertex 30.3234 4.53648 0
    endloop
  endfacet
  facet normal -0.890975 -0.454053 0
    outer loop
      vertex 33.1766 5.46352 0
      vertex 32.9635 5.88168 3
      vertex 32.9635 5.88168 0
    endloop
  endfacet
  facet normal -0.890975 -0.454053 0
    outer loop
      vertex 32.9635 5.88168 3
      vertex 33.1766 5.46352 0
      vertex 33.1766 5.46352 3
    endloop
  endfacet
  facet normal -0.987693 -0.156405 0
    outer loop
      vertex 33.25 5 0
      vertex 33.1766 5.46352 3
      vertex 33.1766 5.46352 0
    endloop
  endfacet
  facet normal -0.987693 -0.156405 0
    outer loop
      vertex 33.1766 5.46352 3
      vertex 33.25 5 0
      vertex 33.25 5 3
    endloop
  endfacet
  facet normal -0.156453 0.987685 0
    outer loop
      vertex 32.2135 3.57342 0
      vertex 31.75 3.5 3
      vertex 32.2135 3.57342 3
    endloop
  endfacet
  facet normal -0.156453 0.987685 0
    outer loop
      vertex 31.75 3.5 3
      vertex 32.2135 3.57342 0
      vertex 31.75 3.5 0
    endloop
  endfacet
  facet normal 0.453951 0.891027 -0
    outer loop
      vertex 31.2865 3.57342 0
      vertex 30.8683 3.78648 3
      vertex 31.2865 3.57342 3
    endloop
  endfacet
  facet normal 0.453951 0.891027 0
    outer loop
      vertex 30.8683 3.78648 3
      vertex 31.2865 3.57342 0
      vertex 30.8683 3.78648 0
    endloop
  endfacet
  facet normal 0.707149 0.707064 0
    outer loop
      vertex 30.8683 3.78648 3
      vertex 30.5365 4.11832 0
      vertex 30.5365 4.11832 3
    endloop
  endfacet
  facet normal 0.707149 0.707064 0
    outer loop
      vertex 30.5365 4.11832 0
      vertex 30.8683 3.78648 3
      vertex 30.8683 3.78648 0
    endloop
  endfacet
  facet normal -0 0 1
    outer loop
      vertex 32.9635 5.88168 3
      vertex 35.1 5 3
      vertex 33.425 7.90119 3
    endloop
  endfacet
  facet normal 0 0 1
    outer loop
      vertex 33.1766 4.53648 3
      vertex 35.1 5 3
      vertex 33.25 5 3
    endloop
  endfacet
  facet normal 0 0 1
    outer loop
      vertex 35.1 5 3
      vertex 33.1766 5.46352 3
      vertex 33.25 5 3
    endloop
  endfacet
  facet normal 0 0 1
    outer loop
      vertex 35.1 5 3
      vertex 32.9635 5.88168 3
      vertex 33.1766 5.46352 3
    endloop
  endfacet
  facet normal 0 0 1
    outer loop
      vertex 33.425 7.90119 3
      vertex 32.6317 6.21352 3
      vertex 32.9635 5.88168 3
    endloop
  endfacet
  facet normal 0 0 1
    outer loop
      vertex 33.425 7.90119 3
      vertex 32.2135 6.42658 3
      vertex 32.6317 6.21352 3
    endloop
  endfacet
  facet normal 0 0 1
    outer loop
      vertex 33.425 7.90119 3
      vertex 31.75 6.5 3
      vertex 32.2135 6.42658 3
    endloop
  endfacet
  facet normal -0 0 1
    outer loop
      vertex 30.075 7.90119 3
      vertex 31.75 6.5 3
      vertex 33.425 7.90119 3
    endloop
  endfacet
  facet normal 0 0 1
    outer loop
      vertex 31.75 6.5 3
      vertex 30.075 7.90119 3
      vertex 31.2865 6.42658 3
    endloop
  endfacet
  facet normal 0 0 1
    outer loop
      vertex 30.5365 5.88168 3
      vertex 28.4 5 3
      vertex 30.3234 5.46352 3
    endloop
  endfacet
  facet normal 0 0 1
    outer loop
      vertex 28.4 5 3
      vertex 30.5365 5.88168 3
      vertex 30.075 7.90119 3
    endloop
  endfacet
  facet normal 0 0 1
    outer loop
      vertex 30.8683 6.21352 3
      vertex 30.075 7.90119 3
      vertex 30.5365 5.88168 3
    endloop
  endfacet
  facet normal 0 0 1
    outer loop
      vertex 31.2865 6.42658 3
      vertex 30.075 7.90119 3
      vertex 30.8683 6.21352 3
    endloop
  endfacet
  facet normal 0 0 1
    outer loop
      vertex 32.9635 4.11832 3
      vertex 35.1 5 3
      vertex 33.1766 4.53648 3
    endloop
  endfacet
  facet normal 0 0 1
    outer loop
      vertex 35.1 5 3
      vertex 32.9635 4.11832 3
      vertex 33.425 2.09881 3
    endloop
  endfacet
  facet normal -0 0 1
    outer loop
      vertex 32.6317 3.78648 3
      vertex 33.425 2.09881 3
      vertex 32.9635 4.11832 3
    endloop
  endfacet
  facet normal -0 0 1
    outer loop
      vertex 32.2135 3.57342 3
      vertex 33.425 2.09881 3
      vertex 32.6317 3.78648 3
    endloop
  endfacet
  facet normal -0 0 1
    outer loop
      vertex 31.75 3.5 3
      vertex 33.425 2.09881 3
      vertex 32.2135 3.57342 3
    endloop
  endfacet
  facet normal 0 0 1
    outer loop
      vertex 30.075 2.09881 3
      vertex 31.75 3.5 3
      vertex 31.2865 3.57342 3
    endloop
  endfacet
  facet normal 0 0 1
    outer loop
      vertex 30.075 2.09881 3
      vertex 31.2865 3.57342 3
      vertex 30.8683 3.78648 3
    endloop
  endfacet
  facet normal 0 0 1
    outer loop
      vertex 31.75 3.5 3
      vertex 30.075 2.09881 3
      vertex 33.425 2.09881 3
    endloop
  endfacet
  facet normal 0 0 1
    outer loop
      vertex 30.5365 4.11832 3
      vertex 30.075 2.09881 3
      vertex 30.8683 3.78648 3
    endloop
  endfacet
  facet normal 0 0 1
    outer loop
      vertex 28.4 5 3
      vertex 30.5365 4.11832 3
      vertex 30.3234 4.53648 3
    endloop
  endfacet
  facet normal -0 0 1
    outer loop
      vertex 28.4 5 3
      vertex 30.3234 4.53648 3
      vertex 30.25 5 3
    endloop
  endfacet
  facet normal 0 0 1
    outer loop
      vertex 30.3234 5.46352 3
      vertex 28.4 5 3
      vertex 30.25 5 3
    endloop
  endfacet
  facet normal 0 0 1
    outer loop
      vertex 30.5365 4.11832 3
      vertex 28.4 5 3
      vertex 30.075 2.09881 3
    endloop
  endfacet
  facet normal -0.453951 -0.891027 0
    outer loop
      vertex 32.2135 6.42658 0
      vertex 32.6317 6.21352 3
      vertex 32.2135 6.42658 3
    endloop
  endfacet
  facet normal -0.453951 -0.891027 -0
    outer loop
      vertex 32.6317 6.21352 3
      vertex 32.2135 6.42658 0
      vertex 32.6317 6.21352 0
    endloop
  endfacet
  facet normal -0.156453 -0.987685 0
    outer loop
      vertex 31.75 6.5 0
      vertex 32.2135 6.42658 3
      vertex 31.75 6.5 3
    endloop
  endfacet
  facet normal -0.156453 -0.987685 -0
    outer loop
      vertex 32.2135 6.42658 3
      vertex 31.75 6.5 0
      vertex 32.2135 6.42658 0
    endloop
  endfacet
  facet normal -0.707149 0.707064 0
    outer loop
      vertex 32.9635 4.11832 0
      vertex 32.6317 3.78648 3
      vertex 32.9635 4.11832 3
    endloop
  endfacet
  facet normal -0.707149 0.707064 0
    outer loop
      vertex 32.6317 3.78648 3
      vertex 32.9635 4.11832 0
      vertex 32.6317 3.78648 0
    endloop
  endfacet
  facet normal 0.156453 0.987685 -0
    outer loop
      vertex 31.75 3.5 0
      vertex 31.2865 3.57342 3
      vertex 31.75 3.5 3
    endloop
  endfacet
  facet normal 0.156453 0.987685 0
    outer loop
      vertex 31.2865 3.57342 3
      vertex 31.75 3.5 0
      vertex 31.2865 3.57342 0
    endloop
  endfacet
  facet normal -0.890975 0.454053 0
    outer loop
      vertex 32.9635 4.11832 0
      vertex 33.1766 4.53648 3
      vertex 33.1766 4.53648 0
    endloop
  endfacet
  facet normal -0.890975 0.454053 0
    outer loop
      vertex 33.1766 4.53648 3
      vertex 32.9635 4.11832 0
      vertex 32.9635 4.11832 3
    endloop
  endfacet
  facet normal 0 -1 0
    outer loop
      vertex 30.075 7.90119 3
      vertex 33.425 7.90119 5
      vertex 30.075 7.90119 5
    endloop
  endfacet
  facet normal 0 -1 -0
    outer loop
      vertex 33.425 7.90119 5
      vertex 30.075 7.90119 3
      vertex 33.425 7.90119 3
    endloop
  endfacet
  facet normal 0.866026 -0.499999 0
    outer loop
      vertex 28.4 5 5
      vertex 30.075 7.90119 3
      vertex 30.075 7.90119 5
    endloop
  endfacet
  facet normal 0.866026 -0.499999 0
    outer loop
      vertex 30.075 7.90119 3
      vertex 28.4 5 5
      vertex 28.4 5 3
    endloop
  endfacet
  facet normal 0 1 -0
    outer loop
      vertex 33.425 2.09881 3
      vertex 30.075 2.09881 5
      vertex 33.425 2.09881 5
    endloop
  endfacet
  facet normal 0 1 0
    outer loop
      vertex 30.075 2.09881 5
      vertex 33.425 2.09881 3
      vertex 30.075 2.09881 3
    endloop
  endfacet
  facet normal 0.866026 0.499999 0
    outer loop
      vertex 30.075 2.09881 5
      vertex 28.4 5 3
      vertex 28.4 5 5
    endloop
  endfacet
  facet normal 0.866026 0.499999 0
    outer loop
      vertex 28.4 5 3
      vertex 30.075 2.09881 5
      vertex 30.075 2.09881 3
    endloop
  endfacet
  facet normal -0.866026 0.499999 0
    outer loop
      vertex 33.425 2.09881 3
      vertex 35.1 5 5
      vertex 35.1 5 3
    endloop
  endfacet
  facet normal -0.866026 0.499999 0
    outer loop
      vertex 35.1 5 5
      vertex 33.425 2.09881 3
      vertex 33.425 2.09881 5
    endloop
  endfacet
  facet normal -0.866026 -0.499999 0
    outer loop
      vertex 35.1 5 3
      vertex 33.425 7.90119 5
      vertex 33.425 7.90119 3
    endloop
  endfacet
  facet normal -0.866026 -0.499999 0
    outer loop
      vertex 33.425 7.90119 5
      vertex 35.1 5 3
      vertex 35.1 5 5
    endloop
  endfacet
endsolid OpenSCAD_Model
